<svg xmlns="http://www.w3.org/2000/svg" width="32" height="32" viewBox="0 0 32 32">
  <defs>
    <radialGradient id="vesta-bg" cx="32%" cy="26%" r="90%">
      <stop offset="0%" stop-color="#7cc0ff" />
      <stop offset="70%" stop-color="#2f7deb" />
    </radialGradient>
  </defs>
  <rect width="32" height="32" rx="8" fill="url(#vesta-bg)" />
  <path
    transform="translate(4 4)"
    fill="#ffffff"
    d="M12 2c.4 3-1.8 4.2-2.8 6.1-1 1.9-.6 4 .9 4.6.5-1.2.2-2.4 1-3.4.2 1.9 1.6 2.7 2.3 4.1.8 1.6.1 3.6-1.4 4.4 3.6.2 6-2 6-5.2 0-4.6-4.2-6.1-4.4-10.6-1.3 1-2 2.6-1.9 4.3-1.6-.9-2-2.6-1.7-4.3z"
  />
</svg>
